<?xml version="1.0" encoding="UTF-8"?>
<!DOCTYPE svg PUBLIC "-//W3C//DTD SVG 1.1//EN" "http://www.w3.org/Graphics/SVG/1.1/DTD/svg11.dtd">
<svg xmlns="http://www.w3.org/2000/svg" version="1.1" width="500px" height="532px" style="shape-rendering:geometricPrecision; text-rendering:geometricPrecision; image-rendering:optimizeQuality; fill-rule:evenodd; clip-rule:evenodd" xmlns:xlink="http://www.w3.org/1999/xlink">
<g><path style="opacity:1" fill="#38a1a3" d="M 334.5,29.5 C 339.871,30.4096 341.871,33.5763 340.5,39C 338.209,58.489 336.375,77.989 335,97.5C 374.05,118.867 398.05,151.534 407,195.5C 413.242,222.706 413.909,250.04 409,277.5C 406.446,291.268 403.779,304.934 401,318.5C 414.486,330.981 428.319,343.148 442.5,355C 445.4,357.397 447.733,360.23 449.5,363.5C 448.282,367.848 445.449,369.514 441,368.5C 421.842,366.223 402.675,364.389 383.5,363C 381.714,363.785 380.214,364.951 379,366.5C 355.862,411.305 321.362,444.138 275.5,465C 246.556,475.816 217.556,476.149 188.5,466C 186.833,465.333 185.167,465.333 183.5,466C 170.5,481 157.5,496 144.5,511C 139.266,512.385 136.599,510.385 136.5,505C 139.022,481.639 141.688,458.306 144.5,435C 136.681,424.511 128.848,414.011 121,403.5C 98.0592,359.552 91.5592,313.218 101.5,264.5C 99.7909,261.278 97.4576,258.444 94.5,256C 80.1667,243.833 65.8333,231.667 51.5,219.5C 48.6196,215.642 49.453,212.975 54,211.5C 74.5071,214.354 95.0071,216.354 115.5,217.5C 134.898,167.167 167.565,128 213.5,100C 236.381,88.1566 260.715,82.8233 286.5,84C 302.022,65.3176 318.022,47.151 334.5,29.5 Z M 277.5,108.5 C 311.903,110.419 337.403,126.419 354,156.5C 362.903,174.444 367.903,193.444 369,213.5C 372.1,285.894 347.6,347.061 295.5,397C 272.903,417.379 246.403,428.879 216,431.5C 175.74,429.249 148.407,409.249 134,371.5C 121.052,333.54 120.052,295.206 131,256.5C 143.677,207.896 169.177,167.73 207.5,136C 228.146,119.843 251.479,110.677 277.5,108.5 Z M 233.5,263.5 C 241.038,264.382 244.705,268.715 244.5,276.5C 244.502,285.524 240.335,291.524 232,294.5C 226.18,292.21 223.347,287.877 223.5,281.5C 223.758,273.638 227.092,267.638 233.5,263.5 Z"/></g>
<g><path style="opacity:1" fill="#399c9f" d="M 328.5,145.5 C 304.356,133.028 279.69,132.195 254.5,143C 217.056,162.777 189.556,191.944 172,230.5C 154.823,267.052 148.489,305.386 153,345.5C 155.81,367.805 164.31,387.472 178.5,404.5C 178.5,405.167 178.167,405.5 177.5,405.5C 163.247,394.369 153.414,380.036 148,362.5C 133.531,304.306 141.531,249.306 172,197.5C 186.29,172.402 205.457,151.902 229.5,136C 257.691,118.027 286.357,117.027 315.5,133C 318.5,135.333 321.5,137.667 324.5,140C 326.464,141.451 327.797,143.284 328.5,145.5 Z"/></g>
<g><path style="opacity:1" fill="#38a0a2" d="M 301.5,211.5 C 312.255,213.009 315.088,218.676 310,228.5C 290.209,252.627 270.042,276.46 249.5,300C 223.5,315.333 197.5,330.667 171.5,346C 164.873,346.712 161.206,343.712 160.5,337C 160.615,334.268 161.448,331.768 163,329.5C 182.167,306.333 201.333,283.167 220.5,260C 247.563,243.807 274.563,227.641 301.5,211.5 Z M 233.5,263.5 C 227.092,267.638 223.758,273.638 223.5,281.5C 223.347,287.877 226.18,292.21 232,294.5C 240.335,291.524 244.502,285.524 244.5,276.5C 244.705,268.715 241.038,264.382 233.5,263.5 Z"/></g>
<g><path style="opacity:1" fill="#15050b" d="M 178.5,404.5 C 179.906,404.973 180.573,405.973 180.5,407.5C 179.29,407.068 178.29,406.401 177.5,405.5C 178.167,405.5 178.5,405.167 178.5,404.5 Z"/></g>
</svg>
